<svg width="24" height="24" viewBox="0 0 24 24" fill="none" xmlns="http://www.w3.org/2000/svg">
<path d="M16.336 1.00012C16.336 1.00012 14.7001 1.03974 13.2001 2.53974C11.7001 4.03974 11.9531 6.06049 11.9531 6.06049C11.9531 6.06049 13.438 6.33201 15.0228 4.74729C16.6075 3.16256 16.336 1.00012 16.336 1.00012Z" fill="white"/>
<path d="M12.1245 7.3396C11.0188 7.33204 10.3396 6.37734 8.4566 6.37734C6.76225 6.37734 5.06373 7.47051 4.34151 8.52828C3.62264 9.58111 3 10.7358 3 13.0792C3 15.4226 4.12832 19.4528 6.90285 22.1811C7.378 22.6483 8.00698 22.9995 8.72454 23.0213C10.0151 23.0604 10.8076 22.0943 12.4377 22.0943C14.0679 22.0943 14.5585 23.0213 16.0302 23.0213C16.6994 23.0213 17.4626 22.7165 18.2038 21.9283C19.1547 20.917 20.3347 18.9909 20.9358 17.1434C20.9358 17.1434 17.9258 15.9809 17.9622 12.6301C17.9924 9.8528 20.3509 8.48675 20.3509 8.48675C20.3509 8.48675 18.9735 6.29053 16.0453 6.29053C14.0226 6.30565 13.1169 7.34639 12.1245 7.3396Z" fill="white"/>
</svg>
