<svg width="25" height="22" viewBox="0 0 25 22" fill="none" xmlns="http://www.w3.org/2000/svg">
<path d="M1.5625 20.375C1.5625 21.2393 2.26074 21.9375 3.125 21.9375H21.875C22.7393 21.9375 23.4375 21.2393 23.4375 20.375V6.3125H1.5625V20.375ZM9.375 10.0234C9.375 9.70117 9.63867 9.4375 9.96094 9.4375H15.0391C15.3613 9.4375 15.625 9.70117 15.625 10.0234V10.4141C15.625 10.7363 15.3613 11 15.0391 11H9.96094C9.63867 11 9.375 10.7363 9.375 10.4141V10.0234ZM23.4375 0.0625H1.5625C0.698242 0.0625 0 0.760742 0 1.625V3.96875C0 4.39844 0.351562 4.75 0.78125 4.75H24.2188C24.6484 4.75 25 4.39844 25 3.96875V1.625C25 0.760742 24.3018 0.0625 23.4375 0.0625Z" fill="#D2CFCF"/>
</svg>
