<svg width="18" height="22" viewBox="0 0 18 22" fill="none" xmlns="http://www.w3.org/2000/svg">
<path d="M0 19.883C0 21.0186 0.863839 21.9399 1.92857 21.9399H16.0714C17.1362 21.9399 18 21.0186 18 19.883V8.22747H0V19.883ZM12.8571 11.4842C12.8571 11.2014 13.0741 10.97 13.3393 10.97H14.9464C15.2116 10.97 15.4286 11.2014 15.4286 11.4842V13.1982C15.4286 13.481 15.2116 13.7124 14.9464 13.7124H13.3393C13.0741 13.7124 12.8571 13.481 12.8571 13.1982V11.4842ZM12.8571 16.9692C12.8571 16.6863 13.0741 16.4549 13.3393 16.4549H14.9464C15.2116 16.4549 15.4286 16.6863 15.4286 16.9692V18.6832C15.4286 18.966 15.2116 19.1974 14.9464 19.1974H13.3393C13.0741 19.1974 12.8571 18.966 12.8571 18.6832V16.9692ZM7.71429 11.4842C7.71429 11.2014 7.93125 10.97 8.19643 10.97H9.80357C10.0687 10.97 10.2857 11.2014 10.2857 11.4842V13.1982C10.2857 13.481 10.0687 13.7124 9.80357 13.7124H8.19643C7.93125 13.7124 7.71429 13.481 7.71429 13.1982V11.4842ZM7.71429 16.9692C7.71429 16.6863 7.93125 16.4549 8.19643 16.4549H9.80357C10.0687 16.4549 10.2857 16.6863 10.2857 16.9692V18.6832C10.2857 18.966 10.0687 19.1974 9.80357 19.1974H8.19643C7.93125 19.1974 7.71429 18.966 7.71429 18.6832V16.9692ZM2.57143 11.4842C2.57143 11.2014 2.78839 10.97 3.05357 10.97H4.66071C4.92589 10.97 5.14286 11.2014 5.14286 11.4842V13.1982C5.14286 13.481 4.92589 13.7124 4.66071 13.7124H3.05357C2.78839 13.7124 2.57143 13.481 2.57143 13.1982V11.4842ZM2.57143 16.9692C2.57143 16.6863 2.78839 16.4549 3.05357 16.4549H4.66071C4.92589 16.4549 5.14286 16.6863 5.14286 16.9692V18.6832C5.14286 18.966 4.92589 19.1974 4.66071 19.1974H3.05357C2.78839 19.1974 2.57143 18.966 2.57143 18.6832V16.9692ZM16.0714 2.74249H14.1429V0.685622C14.1429 0.30853 13.8536 0 13.5 0H12.2143C11.8607 0 11.5714 0.30853 11.5714 0.685622V2.74249H6.42857V0.685622C6.42857 0.30853 6.13929 0 5.78571 0H4.5C4.14643 0 3.85714 0.30853 3.85714 0.685622V2.74249H1.92857C0.863839 2.74249 0 3.66379 0 4.79936V6.85622H18V4.79936C18 3.66379 17.1362 2.74249 16.0714 2.74249Z" fill="#C2BFBF"/>
</svg>
