<svg width="26" height="20" viewBox="0 0 26 20" fill="none" xmlns="http://www.w3.org/2000/svg">
<path d="M20.5 8.74994V11.2499H25.5V8.74994H20.5ZM18 17.0124C19.2 17.8999 20.7625 19.0749 22 19.9999C22.5 19.3374 23 18.6624 23.5 17.9999C22.2625 17.0749 20.7 15.8999 19.5 14.9999C19 15.6749 18.5 16.3499 18 17.0124ZM23.5 1.99994C23 1.33744 22.5 0.662439 22 -6.10352e-05C20.7625 0.924939 19.2 2.09994 18 2.99994C18.5 3.66244 19 4.33744 19.5 4.99994C20.7 4.09994 22.2625 2.93744 23.5 1.99994ZM3 6.24994C1.625 6.24994 0.5 7.37494 0.5 8.74994V11.2499C0.5 12.6249 1.625 13.7499 3 13.7499H4.25V18.7499H6.75V13.7499H8L14.25 17.4999V2.49994L8 6.24994H3ZM17.375 9.99994C17.375 8.33744 16.65 6.83744 15.5 5.81244V14.1749C16.65 13.1624 17.375 11.6624 17.375 9.99994Z" fill="#ABA7A7"/>
</svg>
