<svg width="22" height="22" viewBox="0 0 22 22" fill="none" xmlns="http://www.w3.org/2000/svg">
<path fill-rule="evenodd" clip-rule="evenodd" d="M18.7 12.0476H15.4C13.5773 12.0476 12.1 13.4546 12.1 15.1905V18.3333C12.1 20.0692 13.5773 21.4762 15.4 21.4762H18.7C20.5227 21.4762 22 20.0692 22 18.3333V15.1905C22 13.4546 20.5227 12.0476 18.7 12.0476ZM6.6 12.0476H3.3C1.4773 12.0476 0 13.4546 0 15.1905V18.3333C0 20.0692 1.4773 21.4762 3.3 21.4762H6.6C8.4227 21.4762 9.9 20.0692 9.9 18.3333V15.1905C9.9 13.4546 8.4227 12.0476 6.6 12.0476ZM18.7 0.523804H15.4C13.5773 0.523804 12.1 1.93076 12.1 3.66666V6.80952C12.1 8.54542 13.5773 9.95238 15.4 9.95238H18.7C20.5227 9.95238 22 8.54542 22 6.80952V3.66666C22 1.93076 20.5227 0.523804 18.7 0.523804ZM9.9 3.66666V6.80952C9.9 8.54542 8.4227 9.95238 6.6 9.95238H3.3C1.4773 9.95238 0 8.54542 0 6.80952V3.66666C0 1.93076 1.4773 0.523804 3.3 0.523804H6.6C8.4227 0.523804 9.9 1.93076 9.9 3.66666Z" fill="#D2CFCF"/>
</svg>
