<?xml version="1.0" ?><svg xmlns="http://www.w3.org/2000/svg" xmlns:xlink="http://www.w3.org/1999/xlink" version="1.1" viewBox="0 0 512 512" style="enable-background:new 0 0 512 512;" xml:space="preserve"><g id="_x30_4_x2C__Heart_x2C__hand_x2C__charity_x2C__love_x2C__soldarity_x2C__donate"><g><g><path style="fill:#DC5461;" d="M368.036,25.52c-30.603-30.603-79.193-32.534-112.039-5.817     C223.115-7.013,174.548-5.074,143.954,25.52c-32.665,32.666-32.665,85.816,0,118.481l104.522,104.532     c2.074,2.074,4.793,3.113,7.513,3.113c4.743-0.002,7.401-3.039,7.507-3.108h0.001c6.823-6.823,38.275-38.256,41.338-41.317     c4.15-4.148,4.152-10.876,0.004-15.026c-4.149-4.151-10.877-4.153-15.026-0.005c-17.829,17.819-28.021,28.007-33.822,33.805     l-97.011-97.021c-24.38-24.379-24.38-64.049,0-88.429c24.379-24.38,64.054-24.377,88.404-0.035l1.057,1.067     c4.128,4.167,10.853,4.201,15.022,0.073l1.115-1.104c24.383-24.378,64.053-24.377,88.429-0.001     c21.63,21.629,24.517,55.396,6.866,80.291c-3.394,4.787-2.265,11.419,2.521,14.813c4.789,3.393,11.42,2.265,14.813-2.522     C400.874,99.754,397.015,54.499,368.036,25.52z"/><path style="fill:#283954;" d="M361.037,278.455c1.992,1.993,4.685,3.123,7.503,3.123c2.744,0,5.425-1.023,7.609-3.207     l33.809-33.809c4.149-4.149,4.149-10.877,0-15.026c-4.149-4.149-10.875-4.149-15.026-0.001l-26.381,26.38l-65.204-65.204     c-15.718-15.717-15.737-41.21,0-56.937c15.701-15.702,41.157-15.799,56.998,0.05l0.743,0.733     c4.115,4.06,10.723,4.085,14.867,0.057c0.029-0.028,0.837-0.813,0.865-0.841c15.73-15.739,41.192-15.742,56.935,0.002     c15.733,15.731,15.741,41.197,0,56.937l-8.786,8.786c-4.149,4.149-4.15,10.877-0.001,15.026     c4.148,4.15,10.877,4.151,15.025,0.002l8.788-8.787c24.036-24.037,24.047-62.943,0-86.989     c-11.621-11.621-27.07-18.022-43.499-18.022c-13.414,0-26.172,4.267-36.727,12.159c-23.792-17.79-58.106-16.266-80.233,5.861     c-24.029,24.016-24.038,62.955-0.002,86.992L361.037,278.455z"/><path style="fill:#283954;" d="M479.947,303.917c-12.023-3.815-25.153-2.341-36.089,4.081l-72.779,43.36     c-2.162-17.553-17.154-31.192-35.283-31.192h-61.84c-51.064-30.605-115.545-30.809-167.203,0.985     c-4.998,3.077-6.555,9.621-3.48,14.618c3.076,4.997,9.62,6.558,14.618,3.48c45.573-28.049,102.067-27.839,147.434,0.55     c1.69,1.057,3.643,1.618,5.636,1.618h64.834c7.891,0,14.311,6.421,14.311,14.311c0,7.891-6.42,14.311-14.311,14.311H221.089     c-5.868,0-10.625,4.757-10.625,10.625c0,5.868,4.757,10.625,10.625,10.625h114.707c6.797,0,13.153-1.92,18.559-5.241     c0.635-0.363,82.194-48.961,100.321-59.759c11.951-7.022,27.29-2.15,33.01,10.488c4.967,10.954,0.66,23.761-9.517,29.697     L298.641,471.835c-18.537,10.878-40.379,14.693-61.502,10.739l-123.814-23.172c-5.759-1.077-11.319,2.72-12.398,8.489     c-1.08,5.768,2.721,11.319,8.489,12.398l123.815,23.172c26.09,4.883,53.151,0.208,76.166-13.299l179.504-105.347     c13.631-7.95,22.099-22.696,22.099-38.483C511,326.858,498.313,309.749,479.947,303.917z"/><path style="fill:#DC5461;" d="M111.372,290.238H11.625C5.757,290.238,1,294.995,1,300.863v67.076     c0,5.868,4.757,10.625,10.625,10.625s10.625-4.757,10.625-10.625v-56.451h78.497v178.245H22.25v-79.294     c0-5.868-4.757-10.625-10.625-10.625S1,404.571,1,410.438v89.919c0,5.868,4.757,10.625,10.625,10.625h99.747     c5.868,0,10.625-4.757,10.625-10.625V300.863C121.997,294.995,117.24,290.238,111.372,290.238z"/></g></g></g><g id="Layer_1"/></svg>