<?xml version="1.0" ?><!DOCTYPE svg  PUBLIC '-//W3C//DTD SVG 1.1//EN'  'http://www.w3.org/Graphics/SVG/1.1/DTD/svg11.dtd'><svg height="512px" style="enable-background:new 0 0 512 512;" version="1.1" viewBox="0 0 512 512" width="512px" xml:space="preserve" xmlns="http://www.w3.org/2000/svg" xmlns:xlink="http://www.w3.org/1999/xlink"><g id="_x36_11_x2C__love_x2C__health_care_x2C__hospital_x2C__heart_care"><g><path d="M352.66,86.775c53.479,0,96.82,43.34,96.82,96.659c0,96.82-96.82,143.76-193.48,240.42    c-24.42-24.38-48.83-45.59-71.67-65.239h48.109v-45.311h-54.37v-54.37h-45.3v54.23c-41.66-39.17-70.25-77.08-70.25-129.73    c0-53.319,43.34-96.659,96.66-96.659c48.41,0,72.61,24.04,96.82,72.449C280.21,110.815,304.41,86.775,352.66,86.775z" style="fill:#EF3E5C;"/><g><g><g><path d="M81.187,194.305c0-53.32,43.34-96.66,96.66-96.66c14.751,0,27.244,2.245,38.185,6.719       c-15.002-11.73-32.979-17.588-56.852-17.588c-53.32,0-96.66,43.34-96.66,96.659c0,52.65,28.59,90.561,70.25,129.73v-7.625       C101.474,272.545,81.187,238.654,81.187,194.305z" style="fill:#E42A53;"/></g></g></g><polygon points="232.439,313.305 232.439,358.615 184.33,358.615 178.069,358.615 178.069,412.975     132.77,412.975 132.77,358.615 78.399,358.615 78.399,313.305 132.77,313.305 132.77,313.165 132.77,258.935 178.069,258.935     178.069,313.305   " style="fill:#4DD0E2;"/><g><polygon points="87.066,321.972 141.437,321.972 141.437,321.832 141.437,267.602 178.069,267.602      178.069,258.935 132.77,258.935 132.77,313.165 132.77,313.305 78.399,313.305 78.399,358.615 87.066,358.615    " style="fill:#3BB3BC;"/></g><rect height="18.119" style="fill:#4DD0E2;" width="18.131" x="250.56" y="248.065"/><rect height="18.12" style="fill:#4DD0E2;" width="18.131" x="250.56" y="220.885"/><rect height="18.13" style="fill:#4DD0E2;" width="18.131" x="250.56" y="193.695"/><path d="M341.185,282.065c-1.616,0-3.201-0.782-4.165-2.228c-1.532-2.298-0.911-5.401,1.387-6.934    c32.171-21.448,47.813-51.119,46.491-88.187c-1.002-28.096-11.843-50.181-11.952-50.4c-1.229-2.471-0.226-5.473,2.244-6.704    c2.467-1.23,5.469-0.234,6.702,2.235c0.482,0.965,11.824,23.965,12.986,54.146c1.083,28.146-6.872,67.861-50.925,97.23    C343.101,281.793,342.138,282.065,341.185,282.065z" style="fill:#E42A53;"/><path d="M440.85,425.225h-99.67c-2.762,0-5-2.238-5-5s2.238-5,5-5h99.67c2.762,0,5,2.238,5,5    S443.611,425.225,440.85,425.225z" style="fill:#EF3E5C;"/></g></g><g id="Layer_1"/></svg>