<svg width="25" height="24" viewBox="0 0 25 24" fill="none" xmlns="http://www.w3.org/2000/svg">
<path d="M12.4999 5.8785L3.01512 14.2444C2.9448 14.3078 2.85496 14.3373 2.7777 14.3898V22.4167C2.7777 22.8004 3.08847 23.1111 3.47215 23.1111H9.94914L8.33326 19.951L12.8519 17.1732L10.2408 11.9987L16.6666 17.9354L12.1479 20.7131L13.8806 23.1111H21.5277C21.9114 23.1111 22.2221 22.8004 22.2221 22.4167V14.3915C22.1484 14.3412 22.0607 14.3125 21.9938 14.2526L12.4999 5.8785ZM24.7695 11.1441L22.2221 8.89456V2.97225C22.2221 2.58857 21.9114 2.27781 21.5277 2.27781H18.7499C18.3662 2.27781 18.0555 2.58857 18.0555 2.97225V5.21574L13.6609 1.3364C13.3298 1.03866 12.9149 0.889351 12.4999 0.888917C12.085 0.888483 11.6709 1.03692 11.3411 1.33466L0.230393 11.1441C-0.0547635 11.4006 -0.078635 11.8394 0.177875 12.125L1.10669 13.1589C1.36277 13.444 1.80201 13.4679 2.0876 13.2114L12.0407 4.43189C12.3033 4.20055 12.697 4.20055 12.9596 4.43189L22.9127 13.211C23.1978 13.467 23.6371 13.4436 23.8936 13.1584L24.8224 12.1246C25.0785 11.8394 25.055 11.4002 24.7695 11.1441Z" fill="#004BAB" fill-opacity="0.8"/>
</svg>
