<?xml version="1.0" ?><svg enable-background="new 0 0 512 512" height="512px" id="Layer_1" version="1.1" viewBox="0 0 512 512" width="512px" xml:space="preserve" xmlns="http://www.w3.org/2000/svg" xmlns:xlink="http://www.w3.org/1999/xlink"><g><path d="   M355.5,378.4H166.4v0c-12.5-24-14.6-52.3-5.3-77.7c16.1-43.8,52.7-78.5,99.8-91l0,0l0,0c47.1,12.5,83.7,47.2,99.8,91   C370.1,326.1,368,354.4,355.5,378.4L355.5,378.4z" fill="none" stroke="#000000" stroke-linecap="round" stroke-linejoin="round" stroke-miterlimit="10" stroke-width="10"/><path d="   M181.1,153.9h-51.6l0,0c-3.4-6.6-4-14.3-1.4-21.2c4.4-12,14.4-21.4,27.3-24.9l0,0l0,0c12.9,3.4,22.9,12.9,27.3,24.9   C185.1,139.6,184.5,147.4,181.1,153.9L181.1,153.9z" fill="none" stroke="#000000" stroke-linecap="round" stroke-linejoin="round" stroke-miterlimit="10" stroke-width="10"/><path d="   M161.1,300.7c4.6-12.6,11-24.4,18.7-35.2V153.9h-49.1v224.5h35.6C153.8,354.4,151.7,326.1,161.1,300.7z" fill="none" stroke="#000000" stroke-linecap="round" stroke-linejoin="round" stroke-miterlimit="10" stroke-width="10"/><line fill="none" stroke="#000000" stroke-linecap="round" stroke-linejoin="round" stroke-miterlimit="10" stroke-width="10" x1="260.9" x2="260.9" y1="209.7" y2="182.4"/><line fill="none" stroke="#000000" stroke-linecap="round" stroke-linejoin="round" stroke-miterlimit="10" stroke-width="10" x1="155.3" x2="155.3" y1="107.8" y2="80.6"/><rect fill="none" height="44.8" stroke="#000000" stroke-linecap="round" stroke-linejoin="round" stroke-miterlimit="10" stroke-width="10" width="273.1" x="107.8" y="378.4"/></g></svg>