<svg width="22" height="25" viewBox="0 0 22 25" fill="none" xmlns="http://www.w3.org/2000/svg">
<path d="M10.9375 25C12.6621 25 14.0611 23.6011 14.0611 21.875H7.814C7.814 23.6011 9.21292 25 10.9375 25ZM21.4546 17.6899C20.5113 16.6763 18.7461 15.1514 18.7461 10.1562C18.7461 6.3623 16.086 3.3252 12.4991 2.58008V1.5625C12.4991 0.699707 11.7998 0 10.9375 0C10.0752 0 9.37601 0.699707 9.37601 1.5625V2.58008C5.7891 3.3252 3.12894 6.3623 3.12894 10.1562C3.12894 15.1514 1.3638 16.6763 0.420444 17.6899C0.127475 18.0049 -0.00240765 18.3813 3.37592e-05 18.75C0.00540485 19.5508 0.633823 20.3125 1.56742 20.3125H20.3077C21.2412 20.3125 21.8702 19.5508 21.875 18.75C21.8775 18.3813 21.7476 18.0044 21.4546 17.6899Z" fill="white"/>
</svg>
