<?xml version="1.0" ?><svg id="Layer_1_1_" style="enable-background:new 0 0 96 96;" version="1.1" viewBox="0 0 96 96" xml:space="preserve" xmlns="http://www.w3.org/2000/svg" xmlns:xlink="http://www.w3.org/1999/xlink"><circle cx="84" cy="12" r="5"/><rect height="3" width="2" x="83" y="2"/><rect height="3" width="2" x="83" y="19"/><rect height="2" width="3" x="91" y="11"/><rect height="2" width="3" x="74" y="11"/><rect height="2" transform="matrix(0.7072 -0.707 0.707 0.7072 22.1216 65.3934)" width="3" x="88.51" y="4.989"/><rect height="2" transform="matrix(0.7071 -0.7071 0.7071 0.7071 10.1071 60.4221)" width="3" x="76.489" y="17.011"/><rect height="3" transform="matrix(0.7071 -0.7071 0.7071 0.7071 13.6279 68.9223)" width="2" x="89.011" y="16.511"/><rect height="3" transform="matrix(0.707 -0.7072 0.7072 0.707 18.6134 56.908)" width="2" x="76.99" y="4.489"/><path d="M84.786,84.464l4.707,2.664l-0.985,1.74l-5-2.83c-0.19-0.107-0.34-0.274-0.426-0.476L82.41,84H79l-3,1.17l-6-2l-1.265-0.316  c-0.293,0.531-0.582,1.076-0.84,1.592c-0.097,0.193-0.254,0.351-0.447,0.447l-8,4l-0.895-1.789l7.704-3.852  c0.117-0.229,0.284-0.548,0.472-0.9L66,82.17h-4l-8-3h-5.002l-0.007-7.039C55.134,71.732,60,66.485,60,60.245V60  c-6.181,0-11.237,4.927-11.709,11.001l-0.583,0.001C47.236,64.942,42.18,60.17,36,60.17v0.245c0,6.234,4.857,11.321,10.991,11.717  l0.007,7.039H42l-4,2l-12,3l-2.954,0.454l0.55,0.688l2.72,0.907c0.084,0.027,0.165,0.066,0.238,0.116l3,2L28.445,90l-2.889-1.926  l-2.873-0.958c-0.183-0.061-0.344-0.173-0.464-0.323l-1.454-1.818L13,86.17l-11-2V94h92V84h-9.414L84.786,84.464z"/><rect height="14" width="12" x="10" y="13"/><path d="M31,10v6h-7v8h18c1.105,0,2,0.895,2,2v5h7v-7c0-4.418-3.582-8-8-8h-2v-6h-2V8h1V6h7V4h-7V2h-8v2h-7v2h7v2h1v2H31z M35,8h2v2  h-2V8z"/><path d="M41.613,47.465C39.023,52.212,42.459,58,47.866,58s8.843-5.788,6.254-10.535L47.866,36L41.613,47.465z M48.586,55  c-2.676,0-4.854-2.243-4.854-5h2c0,1.654,1.28,3,2.854,3V55z"/><rect height="10" width="6" x="2" y="15"/></svg>