<svg width="25" height="24" viewBox="0 0 25 24" fill="none" xmlns="http://www.w3.org/2000/svg">
<path d="M24.6737 8.35112L18.4236 14.6459C17.7648 15.3094 16.6667 14.8175 16.6667 13.8382V10.507C10.3917 10.5519 7.74453 12.1324 9.51497 18.439C9.70955 19.1321 8.95742 19.6688 8.42964 19.2412C6.73837 17.871 5.20833 15.2502 5.20833 12.6048C5.20833 5.9419 10.3125 4.61972 16.6667 4.58213V1.24855C16.6667 0.268406 17.7655 -0.221992 18.4236 0.440883L24.6737 6.73578C25.1086 7.17382 25.1089 7.9127 24.6737 8.35112ZM16.6667 17.6869V20.875H2.77778V6.06217H4.98767C5.05781 6.06212 5.12721 6.04695 5.19172 6.01757C5.25622 5.9882 5.31449 5.94522 5.36302 5.89122C6.01202 5.17057 6.7622 4.60019 7.57717 4.14719C8.06024 3.87866 7.88125 3.0996 7.3365 3.0996H2.08333C0.932726 3.0996 0 4.09437 0 5.32152V21.6156C0 22.8428 0.932726 23.8376 2.08333 23.8376H17.3611C18.5117 23.8376 19.4444 22.8428 19.4444 21.6156V17.5048C19.4444 17.1211 19.0887 16.8537 18.7495 16.9816C18.274 17.161 17.7648 17.2146 17.2656 17.1379C16.9501 17.0895 16.6667 17.3469 16.6667 17.6869Z" fill="#3C89F7" fill-opacity="0.6"/>
</svg>
