<svg width="61" height="61" viewBox="0 0 61 61" fill="none" xmlns="http://www.w3.org/2000/svg">
<path d="M61 30.5C61 47.3447 47.3447 61 30.5 61C13.6553 61 0 47.3447 0 30.5C0 13.6553 13.6553 0 30.5 0C47.3447 0 61 13.6553 61 30.5ZM4.575 30.5C4.575 44.818 16.182 56.425 30.5 56.425C44.818 56.425 56.425 44.818 56.425 30.5C56.425 16.182 44.818 4.575 30.5 4.575C16.182 4.575 4.575 16.182 4.575 30.5Z" fill="#4CD571"/>
<path d="M41.6666 23L27 37.6667L20.3333 31" stroke="#4CD571" stroke-width="5" stroke-linecap="square" stroke-linejoin="round"/>
</svg>
