<svg width="23" height="23" viewBox="0 0 23 23" fill="none" xmlns="http://www.w3.org/2000/svg">
<path d="M21.438 0.808L22.246 11.313L11.314 22.245L0 10.931L10.932 0L21.438 0.808ZM12.727 5.274C12.4447 5.55177 12.2203 5.88268 12.0665 6.24765C11.9128 6.61261 11.8328 7.0044 11.8313 7.40041C11.8297 7.79643 11.9065 8.18884 12.0574 8.55501C12.2082 8.92117 12.4301 9.25385 12.7102 9.53385C12.9902 9.81384 13.3229 10.0356 13.6891 10.1864C14.0554 10.3371 14.4478 10.4139 14.8438 10.4122C15.2398 10.4106 15.6316 10.3305 15.9965 10.1767C16.3614 10.0229 16.6923 9.79833 16.97 9.516C17.525 8.95178 17.8345 8.19112 17.8312 7.39971C17.8279 6.6083 17.512 5.85026 16.9523 5.29071C16.3926 4.73115 15.6345 4.41543 14.8431 4.4123C14.0517 4.40917 13.2911 4.71889 12.727 5.274Z" fill="#FCC21B"/>
</svg>
